<svg width="204" height="101" viewBox="0 0 204 101" fill="none" xmlns="http://www.w3.org/2000/svg">
<g filter="url(#filter0_d)">
<path fill-rule="evenodd" clip-rule="evenodd" d="M17 1V36H46C49.3137 36 52 38.6863 52 42V80H83V92H46C42.6863 92 40 89.3137 40 86V48H11C7.68629 48 5 45.3137 5 42V1H17Z" fill="url(#paint0_linear)"/>
</g>
<g filter="url(#filter1_d)">
<path d="M70.337 46.588C66.221 46.588 62.9707 45.461 60.586 43.207C58.234 40.953 57.058 37.9313 57.058 34.142C57.058 30.3527 58.1197 27.3147 60.243 25.028C62.399 22.7413 65.3227 21.598 69.014 21.598C72.738 21.598 75.4657 22.8393 77.197 25.322C78.961 27.772 79.843 30.6793 79.843 34.044V36.004H63.82C64.114 37.572 64.8327 38.8297 65.976 39.777C67.1193 40.6917 68.622 41.149 70.484 41.149C71.562 41.149 72.5257 41.0183 73.375 40.757C74.257 40.463 75.2697 40.0547 76.413 39.532L78.275 44.138C77.1643 44.9873 75.8087 45.608 74.208 46C72.64 46.392 71.3497 46.588 70.337 46.588ZM73.816 31.741C73.4893 30.1403 72.9013 28.9643 72.052 28.213C71.2027 27.429 70.141 27.037 68.867 27.037C67.5603 27.037 66.466 27.4453 65.584 28.262C64.702 29.046 64.1303 30.2057 63.869 31.741H73.816Z" fill="black"/>
<path d="M91.9422 38.895C91.9422 39.581 92.2198 40.2017 92.7752 40.757C93.3305 41.2797 94.0655 41.541 94.9802 41.541C95.8622 41.541 96.7442 41.345 97.6262 40.953C98.5408 40.561 99.4065 39.973 100.223 39.189V35.563H95.4212C94.3105 35.563 93.4448 35.906 92.8242 36.592C92.2362 37.278 91.9422 38.0457 91.9422 38.895ZM95.0782 46.588C92.1708 46.588 90.0148 45.8857 88.6102 44.481C87.2055 43.0437 86.5032 41.1817 86.5032 38.895C86.5032 36.445 87.3362 34.5667 89.0022 33.26C90.6682 31.9533 92.8405 31.3 95.5192 31.3H100.174C100.142 30.0913 99.7822 29.1603 99.0962 28.507C98.4428 27.821 97.5282 27.478 96.3522 27.478C95.2415 27.478 94.0328 27.6413 92.7262 27.968C91.4195 28.262 90.3252 28.6213 89.4432 29.046L87.7282 23.754C88.6428 23.1333 90.0312 22.627 91.8932 22.235C93.7878 21.8103 95.2415 21.598 96.2542 21.598C99.0962 21.598 101.53 22.431 103.555 24.097C105.581 25.7303 106.593 27.821 106.593 30.369V46H103.31L101.742 43.991C100.86 44.677 99.8148 45.2813 98.6062 45.804C97.4302 46.3267 96.2542 46.588 95.0782 46.588Z" fill="black"/>
<path d="M126.42 26.743C124.198 26.743 122.647 27.527 121.765 29.095C120.915 30.663 120.491 32.28 120.491 33.946C120.491 35.808 120.883 37.474 121.667 38.944C122.451 40.414 124.035 41.149 126.42 41.149C127.171 41.149 127.955 40.9857 128.772 40.659C129.621 40.2997 130.405 39.8913 131.124 39.434V28.458C130.405 27.968 129.621 27.5597 128.772 27.233C127.955 26.9063 127.171 26.743 126.42 26.743ZM137.543 22.235V45.951C137.543 48.8257 136.563 51.2267 134.603 53.154C132.675 55.114 129.605 56.094 125.391 56.094C124.378 56.094 122.908 55.849 120.981 55.359C119.053 54.9017 117.453 54.2483 116.179 53.399L118.09 48.891C119.56 49.6097 120.817 50.1323 121.863 50.459C122.908 50.7857 124.035 50.949 125.244 50.949C127.138 50.949 128.592 50.4917 129.605 49.577C130.617 48.695 131.124 47.47 131.124 45.902V44.677C130.111 45.265 129.033 45.7223 127.89 46.049C126.746 46.4083 125.685 46.588 124.705 46.588C121.242 46.588 118.58 45.3793 116.718 42.962C114.856 40.5447 113.925 37.5393 113.925 33.946C113.925 30.3527 114.905 27.3473 116.865 24.93C118.857 22.5127 121.569 21.304 124.999 21.304C126.175 21.304 127.498 21.5653 128.968 22.088C130.438 22.578 131.695 23.2803 132.741 24.195L134.211 22.235H137.543Z" fill="black"/>
<path d="M163.258 43.648C162.18 44.6607 160.857 45.461 159.289 46.049C157.721 46.6697 156.3 46.98 155.026 46.98C151.792 46.98 149.489 46.0327 148.117 44.138C146.778 42.2107 146.108 39.8913 146.108 37.18V22.235H152.527V36.886C152.527 38.3887 152.886 39.5483 153.605 40.365C154.324 41.149 155.369 41.541 156.741 41.541C157.59 41.541 158.489 41.3287 159.436 40.904C160.383 40.4793 161.249 39.9893 162.033 39.434V22.235H168.403V46H165.071L163.258 43.648Z" fill="black"/>
<path d="M189.286 46.588C185.17 46.588 181.92 45.461 179.535 43.207C177.183 40.953 176.007 37.9313 176.007 34.142C176.007 30.3527 177.069 27.3147 179.192 25.028C181.348 22.7413 184.272 21.598 187.963 21.598C191.687 21.598 194.415 22.8393 196.146 25.322C197.91 27.772 198.792 30.6793 198.792 34.044V36.004H182.769C183.063 37.572 183.782 38.8297 184.925 39.777C186.069 40.6917 187.571 41.149 189.433 41.149C190.511 41.149 191.475 41.0183 192.324 40.757C193.206 40.463 194.219 40.0547 195.362 39.532L197.224 44.138C196.114 44.9873 194.758 45.608 193.157 46C191.589 46.392 190.299 46.588 189.286 46.588ZM192.765 31.741C192.439 30.1403 191.851 28.9643 191.001 28.213C190.152 27.429 189.09 27.037 187.816 27.037C186.51 27.037 185.415 27.4453 184.533 28.262C183.651 29.046 183.08 30.2057 182.818 31.741H192.765Z" fill="black"/>
<path d="M93.223 57.7C94.2357 57.7 95.085 58.043 95.771 58.729C96.4897 59.415 96.849 60.2643 96.849 61.277C96.849 62.2897 96.4897 63.139 95.771 63.825C95.085 64.511 94.2357 64.854 93.223 64.854C92.243 64.854 91.41 64.511 90.724 63.825C90.038 63.139 89.695 62.2897 89.695 61.277C89.695 60.2643 90.038 59.415 90.724 58.729C91.41 58.043 92.243 57.7 93.223 57.7ZM96.408 68.235V92H90.038V68.235H96.408Z" fill="black"/>
<path d="M110.268 70.783C111.346 69.705 112.685 68.8557 114.286 68.235C115.919 67.6143 117.373 67.304 118.647 67.304C121.881 67.304 124.168 68.2513 125.507 70.146C126.879 72.0407 127.565 74.36 127.565 77.104V92H121.195V77.398C121.195 75.8953 120.836 74.752 120.117 73.968C119.398 73.1513 118.353 72.743 116.981 72.743C116.066 72.743 115.103 72.988 114.09 73.478C113.11 73.9353 112.212 74.4743 111.395 75.095V92H105.025V68.235H108.357L110.268 70.783Z" fill="black"/>
<path d="M142.563 57.406V76.908L152.755 67.549L156.332 72.057L149.668 77.888L158.39 92H151.089L145.111 81.955L142.563 84.209V92H136.242V57.945L142.563 57.406Z" fill="black"/>
</g>
<defs>
<filter id="filter0_d" x="0" y="0" width="88" height="101" filterUnits="userSpaceOnUse" color-interpolation-filters="sRGB">
<feFlood flood-opacity="0" result="BackgroundImageFix"/>
<feColorMatrix in="SourceAlpha" type="matrix" values="0 0 0 0 0 0 0 0 0 0 0 0 0 0 0 0 0 0 127 0"/>
<feOffset dy="4"/>
<feGaussianBlur stdDeviation="2.5"/>
<feColorMatrix type="matrix" values="0 0 0 0 0 0 0 0 0 0 0 0 0 0 0 0 0 0 0.25 0"/>
<feBlend mode="normal" in2="BackgroundImageFix" result="effect1_dropShadow"/>
<feBlend mode="normal" in="SourceGraphic" in2="effect1_dropShadow" result="shape"/>
</filter>
<filter id="filter1_d" x="52.058" y="20.304" width="151.734" height="80.696" filterUnits="userSpaceOnUse" color-interpolation-filters="sRGB">
<feFlood flood-opacity="0" result="BackgroundImageFix"/>
<feColorMatrix in="SourceAlpha" type="matrix" values="0 0 0 0 0 0 0 0 0 0 0 0 0 0 0 0 0 0 127 0"/>
<feOffset dy="4"/>
<feGaussianBlur stdDeviation="2.5"/>
<feColorMatrix type="matrix" values="0 0 0 0 0 0 0 0 0 0 0 0 0 0 0 0 0 0 0.25 0"/>
<feBlend mode="normal" in2="BackgroundImageFix" result="effect1_dropShadow"/>
<feBlend mode="normal" in="SourceGraphic" in2="effect1_dropShadow" result="shape"/>
</filter>
<linearGradient id="paint0_linear" x1="44" y1="1" x2="44" y2="92" gradientUnits="userSpaceOnUse">
<stop stop-color="#6A78D1"/>
<stop offset="1" stop-color="#00A4BD"/>
</linearGradient>
</defs>
</svg>
